<svg xmlns="http://www.w3.org/2000/svg" width="1898" height="1898" viewBox="0 0 1898 1898">
  <g id="circle_bg" transform="translate(-524 359)">
    <g id="Group_6" data-name="Group 6" transform="translate(552 -1545)">
      <circle id="Ellipse_3" data-name="Ellipse 3" cx="949" cy="949" r="949" transform="translate(-28 1186)" fill="#132436"/>
      <circle id="Ellipse_4" data-name="Ellipse 4" cx="840" cy="840" r="840" transform="translate(81 1295)" fill="#1c2d41"/>
      <circle id="Ellipse_5" data-name="Ellipse 5" cx="696" cy="696" r="696" transform="translate(225 1439)" fill="#2a3747"/>
      <circle id="Ellipse_6" data-name="Ellipse 6" cx="563.5" cy="563.5" r="563.5" transform="translate(358 1572)" fill="#323f4f"/>
      <circle id="Ellipse_7" data-name="Ellipse 7" cx="432.5" cy="432.5" r="432.5" transform="translate(489 1703)" fill="#3b4755"/>
      <circle id="Ellipse_8" data-name="Ellipse 8" cx="302" cy="302" r="302" transform="translate(620 1834)" fill="#414d5d"/>
    </g>
    <g id="Group_7" data-name="Group 7">
      <circle id="Ellipse_10" data-name="Ellipse 10" cx="4" cy="4" r="4" transform="translate(834 286)" fill="#fff"/>
      <circle id="Ellipse_12" data-name="Ellipse 12" cx="4" cy="4" r="4" transform="translate(634 186)" fill="#fff"/>
      <circle id="Ellipse_14" data-name="Ellipse 14" cx="4" cy="4" r="4" transform="translate(894 36)" fill="#fff"/>
      <circle id="Ellipse_15" data-name="Ellipse 15" cx="4" cy="4" r="4" transform="translate(894 616)" fill="#fff"/>
      <circle id="Ellipse_16" data-name="Ellipse 16" cx="4" cy="4" r="4" transform="translate(524 616)" fill="#fff"/>
      <circle id="Ellipse_17" data-name="Ellipse 17" cx="4" cy="4" r="4" transform="translate(714 776)" fill="#fff"/>
      <circle id="Ellipse_18" data-name="Ellipse 18" cx="4" cy="4" r="4" transform="translate(1004 776)" fill="#fff"/>
      <circle id="Ellipse_19" data-name="Ellipse 19" cx="4" cy="4" r="4" transform="translate(1004 1036)" fill="#fff"/>
      <circle id="Ellipse_22" data-name="Ellipse 22" cx="4" cy="4" r="4" transform="translate(1644 1036)" fill="#fff"/>
      <circle id="Ellipse_23" data-name="Ellipse 23" cx="4" cy="4" r="4" transform="translate(1894 846)" fill="#fff"/>
      <circle id="Ellipse_25" data-name="Ellipse 25" cx="4" cy="4" r="4" transform="translate(1894 416)" fill="#fff"/>
      <circle id="Ellipse_27" data-name="Ellipse 27" cx="4" cy="4" r="4" transform="translate(1884 159)" fill="#fff"/>
      <circle id="Ellipse_28" data-name="Ellipse 28" cx="4" cy="4" r="4" transform="translate(1534 128)" fill="#fff"/>
      <circle id="Ellipse_21" data-name="Ellipse 21" cx="4" cy="4" r="4" transform="translate(1263 906)" fill="#fff"/>
    </g>
  </g>
</svg>
